<mxfile host="Electron" agent="Mozilla/5.0 (Windows NT 10.0; Win64; x64) AppleWebKit/537.36 (KHTML, like Gecko) draw.io/28.0.4 Chrome/138.0.7204.97 Electron/37.2.1 Safari/537.36" version="28.0.4" pages="2">
  <diagram id="3hQs7U9NJJeXT7D4Scpk" name="DEMO">
    <mxGraphModel dx="1310" dy="937" grid="1" gridSize="10" guides="1" tooltips="1" connect="1" arrows="1" fold="1" page="1" pageScale="1" pageWidth="1169" pageHeight="827" background="#ffffff" math="0" shadow="0">
      <root>
        <mxCell id="0" />
        <mxCell id="1" parent="0" />
        <mxCell id="k3Ge6N0_RAWB8F6Zxe4Y-87" style="edgeStyle=orthogonalEdgeStyle;shape=connector;rounded=0;orthogonalLoop=1;jettySize=auto;html=1;exitX=0.5;exitY=1;exitDx=0;exitDy=0;entryX=0.5;entryY=0;entryDx=0;entryDy=0;strokeColor=default;strokeWidth=3;align=center;verticalAlign=middle;fontFamily=Helvetica;fontSize=22;fontColor=default;labelBackgroundColor=default;startFill=0;endArrow=none;flowAnimation=0;" parent="1" source="2Iq-k1-DHA4utV9OMn_V-1" target="k3Ge6N0_RAWB8F6Zxe4Y-48" edge="1">
          <mxGeometry relative="1" as="geometry" />
        </mxCell>
        <mxCell id="2Iq-k1-DHA4utV9OMn_V-1" value="&lt;b&gt;&lt;font&gt;EA&lt;br&gt;RHS&lt;/font&gt;&lt;/b&gt;" style="rounded=0;whiteSpace=wrap;html=1;strokeColor=default;align=center;verticalAlign=middle;fontFamily=Helvetica;fontSize=22;fontColor=default;fillColor=#FFFF33;strokeWidth=3;" parent="1" vertex="1">
          <mxGeometry x="193.7" y="390" width="110" height="68.5" as="geometry" />
        </mxCell>
        <mxCell id="k3Ge6N0_RAWB8F6Zxe4Y-2" style="edgeStyle=orthogonalEdgeStyle;shape=connector;rounded=0;orthogonalLoop=1;jettySize=auto;html=1;exitX=0.5;exitY=1;exitDx=0;exitDy=0;entryX=0;entryY=0.5;entryDx=0;entryDy=0;strokeColor=default;strokeWidth=3;align=center;verticalAlign=middle;fontFamily=Helvetica;fontSize=12;fontColor=default;labelBackgroundColor=default;startFill=0;endArrow=none;flowAnimation=0;" parent="1" source="2Iq-k1-DHA4utV9OMn_V-2" target="Lcw7kQGhxqpuMeW0KqM0-1" edge="1">
          <mxGeometry relative="1" as="geometry" />
        </mxCell>
        <mxCell id="2Iq-k1-DHA4utV9OMn_V-2" value="&lt;b&gt;&lt;font&gt;TEL&lt;/font&gt;&lt;/b&gt;" style="rounded=0;whiteSpace=wrap;html=1;strokeColor=default;align=center;verticalAlign=middle;fontFamily=Helvetica;fontSize=22;fontColor=default;fillColor=#FFFF33;strokeWidth=3;shadow=0;glass=0;" parent="1" vertex="1">
          <mxGeometry x="109.2" y="51.5" width="110" height="68.5" as="geometry" />
        </mxCell>
        <mxCell id="Lcw7kQGhxqpuMeW0KqM0-1" value="&lt;b&gt;&lt;font&gt;EL&lt;/font&gt;&lt;/b&gt;" style="rounded=0;whiteSpace=wrap;html=1;strokeColor=default;align=center;verticalAlign=middle;fontFamily=Helvetica;fontSize=22;fontColor=default;fillColor=#FFFF33;strokeWidth=3;shadow=0;glass=0;" parent="1" vertex="1">
          <mxGeometry x="390.8" y="120" width="110" height="68.5" as="geometry" />
        </mxCell>
        <mxCell id="Lcw7kQGhxqpuMeW0KqM0-8" value="&lt;b&gt;&lt;font&gt;EA&lt;br&gt;Kräfte&lt;/font&gt;&lt;/b&gt;" style="rounded=0;whiteSpace=wrap;html=1;strokeColor=default;align=center;verticalAlign=middle;fontFamily=Helvetica;fontSize=22;fontColor=default;fillColor=#FFFF33;strokeWidth=3;shadow=0;glass=0;" parent="1" vertex="1">
          <mxGeometry x="593.6500000000001" y="390" width="110" height="68.5" as="geometry" />
        </mxCell>
        <mxCell id="k3Ge6N0_RAWB8F6Zxe4Y-70" style="edgeStyle=orthogonalEdgeStyle;shape=connector;rounded=0;orthogonalLoop=1;jettySize=auto;html=1;exitX=0.5;exitY=1;exitDx=0;exitDy=0;strokeColor=default;strokeWidth=3;align=center;verticalAlign=middle;fontFamily=Helvetica;fontSize=22;fontColor=default;labelBackgroundColor=default;startFill=0;endArrow=none;flowAnimation=0;" parent="1" source="Tnsp_8qMlVV5rjM7AwU0-1" target="BXb0ApeQCMEE1BRcDQZF-2" edge="1">
          <mxGeometry relative="1" as="geometry" />
        </mxCell>
        <mxCell id="Tnsp_8qMlVV5rjM7AwU0-1" value="&lt;b&gt;&lt;font&gt;EA&lt;br&gt;B-Raum&lt;/font&gt;&lt;/b&gt;" style="rounded=0;whiteSpace=wrap;html=1;strokeColor=default;align=center;verticalAlign=middle;fontFamily=Helvetica;fontSize=22;fontColor=default;fillColor=#FFFF33;strokeWidth=3;" parent="1" vertex="1">
          <mxGeometry x="833.15" y="394" width="110" height="68.5" as="geometry" />
        </mxCell>
        <mxCell id="Tnsp_8qMlVV5rjM7AwU0-3" value="&lt;b&gt;&lt;font&gt;ILS&lt;/font&gt;&lt;/b&gt;" style="rounded=0;whiteSpace=wrap;html=1;strokeColor=default;align=center;verticalAlign=middle;fontFamily=Helvetica;fontSize=22;fontColor=default;fillColor=#FFFF33;strokeWidth=3;glass=0;shadow=0;" parent="1" vertex="1">
          <mxGeometry x="810" y="120" width="110" height="68.5" as="geometry" />
        </mxCell>
        <mxCell id="k3Ge6N0_RAWB8F6Zxe4Y-39" style="edgeStyle=orthogonalEdgeStyle;shape=connector;rounded=0;orthogonalLoop=1;jettySize=auto;html=1;exitX=0;exitY=0.5;exitDx=0;exitDy=0;entryX=1;entryY=0.5;entryDx=0;entryDy=0;strokeColor=default;strokeWidth=3;align=center;verticalAlign=middle;fontFamily=Helvetica;fontSize=12;fontColor=default;labelBackgroundColor=default;startFill=0;endArrow=none;flowAnimation=0;" parent="1" source="Tnsp_8qMlVV5rjM7AwU0-10" target="Lcw7kQGhxqpuMeW0KqM0-1" edge="1">
          <mxGeometry relative="1" as="geometry" />
        </mxCell>
        <mxCell id="k3Ge6N0_RAWB8F6Zxe4Y-40" style="edgeStyle=orthogonalEdgeStyle;shape=connector;rounded=0;orthogonalLoop=1;jettySize=auto;html=1;exitX=1;exitY=0.5;exitDx=0;exitDy=0;entryX=0;entryY=0.5;entryDx=0;entryDy=0;strokeColor=default;strokeWidth=3;align=center;verticalAlign=middle;fontFamily=Helvetica;fontSize=12;fontColor=default;labelBackgroundColor=default;startFill=0;endArrow=none;flowAnimation=0;" parent="1" source="Tnsp_8qMlVV5rjM7AwU0-10" target="Tnsp_8qMlVV5rjM7AwU0-3" edge="1">
          <mxGeometry relative="1" as="geometry" />
        </mxCell>
        <mxCell id="Tnsp_8qMlVV5rjM7AwU0-10" value="&lt;font&gt;&lt;b&gt;TMO: BS VS BG&lt;br&gt;7250&lt;/b&gt;&lt;/font&gt;" style="shape=hexagon;perimeter=hexagonPerimeter2;whiteSpace=wrap;html=1;fixedSize=1;strokeColor=default;strokeWidth=3;align=center;verticalAlign=middle;fontFamily=Helvetica;fontSize=12;fontColor=default;labelBackgroundColor=default;fillColor=light-dark(#ffffff, #2b2b00);rounded=0;" parent="1" vertex="1">
          <mxGeometry x="578.35" y="135.25" width="151.6" height="37.79" as="geometry" />
        </mxCell>
        <mxCell id="k3Ge6N0_RAWB8F6Zxe4Y-84" style="edgeStyle=orthogonalEdgeStyle;shape=connector;rounded=0;orthogonalLoop=1;jettySize=auto;html=1;entryX=0.5;entryY=0;entryDx=0;entryDy=0;strokeColor=default;strokeWidth=3;align=center;verticalAlign=middle;fontFamily=Helvetica;fontSize=22;fontColor=default;labelBackgroundColor=default;startFill=0;endArrow=none;flowAnimation=0;" parent="1" source="Tnsp_8qMlVV5rjM7AwU0-11" target="Tnsp_8qMlVV5rjM7AwU0-3" edge="1">
          <mxGeometry relative="1" as="geometry" />
        </mxCell>
        <mxCell id="Tnsp_8qMlVV5rjM7AwU0-11" value="&lt;b&gt;&lt;font style=&quot;font-size: 18px;&quot;&gt;Anrückende Kräfte&lt;/font&gt;&lt;/b&gt;" style="rounded=0;whiteSpace=wrap;html=1;strokeColor=default;align=center;verticalAlign=middle;fontFamily=Helvetica;fontSize=22;fontColor=default;fillColor=light-dark(#ffffff, #2b2b00);strokeWidth=3;gradientColor=none;" parent="1" vertex="1">
          <mxGeometry x="980.0000000000001" y="40" width="110" height="68.5" as="geometry" />
        </mxCell>
        <mxCell id="k3Ge6N0_RAWB8F6Zxe4Y-49" style="edgeStyle=orthogonalEdgeStyle;shape=connector;rounded=0;orthogonalLoop=1;jettySize=auto;html=1;exitX=0.5;exitY=1;exitDx=0;exitDy=0;strokeColor=default;strokeWidth=3;align=center;verticalAlign=middle;fontFamily=Helvetica;fontSize=22;fontColor=default;labelBackgroundColor=default;startFill=0;endArrow=none;flowAnimation=0;" parent="1" source="Tnsp_8qMlVV5rjM7AwU0-20" target="2Iq-k1-DHA4utV9OMn_V-1" edge="1">
          <mxGeometry relative="1" as="geometry" />
        </mxCell>
        <mxCell id="k3Ge6N0_RAWB8F6Zxe4Y-66" style="edgeStyle=orthogonalEdgeStyle;shape=connector;rounded=0;orthogonalLoop=1;jettySize=auto;html=1;exitX=0.5;exitY=0;exitDx=0;exitDy=0;entryX=0.5;entryY=1;entryDx=0;entryDy=0;strokeColor=default;strokeWidth=3;align=center;verticalAlign=middle;fontFamily=Helvetica;fontSize=22;fontColor=default;labelBackgroundColor=default;startFill=0;endArrow=none;flowAnimation=0;" parent="1" source="Tnsp_8qMlVV5rjM7AwU0-20" target="Lcw7kQGhxqpuMeW0KqM0-1" edge="1">
          <mxGeometry relative="1" as="geometry" />
        </mxCell>
        <mxCell id="Tnsp_8qMlVV5rjM7AwU0-20" value="&lt;font&gt;&lt;b&gt;TMO: HO VS 08 VET&lt;br&gt;7248&lt;/b&gt;&lt;/font&gt;" style="shape=hexagon;perimeter=hexagonPerimeter2;whiteSpace=wrap;html=1;fixedSize=1;rounded=0;strokeColor=default;strokeWidth=3;align=center;verticalAlign=middle;fontFamily=Helvetica;fontSize=12;fontColor=default;fillColor=light-dark(#ffffff, #2b2b00);overflow=visible;strokeOpacity=100;dropTarget=0;expand=0;" parent="1" vertex="1">
          <mxGeometry x="172.9" y="290" width="151.6" height="37.79" as="geometry" />
        </mxCell>
        <mxCell id="9z3cz8a9huuIDM0onZsC-8" value="&lt;span&gt;&lt;b&gt;RHS&lt;/b&gt;&lt;/span&gt;" style="rounded=0;whiteSpace=wrap;html=1;strokeColor=default;align=center;verticalAlign=middle;fontFamily=Helvetica;fontSize=30;fontColor=default;fillColor=light-dark(#ffffff, #2b2b00);strokeWidth=3;aspect=fixed;" parent="1" vertex="1">
          <mxGeometry x="48.599999999999994" y="709.64" width="119" height="60.21" as="geometry" />
        </mxCell>
        <mxCell id="k3Ge6N0_RAWB8F6Zxe4Y-62" style="edgeStyle=orthogonalEdgeStyle;shape=connector;rounded=0;orthogonalLoop=1;jettySize=auto;html=1;entryX=0.5;entryY=1;entryDx=0;entryDy=0;strokeColor=default;strokeWidth=3;align=center;verticalAlign=middle;fontFamily=Helvetica;fontSize=22;fontColor=default;labelBackgroundColor=default;startFill=0;endArrow=none;flowAnimation=0;" parent="1" source="nskLqa04cSPr9-I_M70H-1" target="k3Ge6N0_RAWB8F6Zxe4Y-60" edge="1">
          <mxGeometry relative="1" as="geometry" />
        </mxCell>
        <mxCell id="nskLqa04cSPr9-I_M70H-1" value="&lt;font&gt;&lt;b&gt;DMO: 611_R&lt;br&gt;(2m 51 W/U)&lt;/b&gt;&lt;/font&gt;" style="shape=hexagon;perimeter=hexagonPerimeter2;whiteSpace=wrap;html=1;fixedSize=1;strokeColor=default;align=center;verticalAlign=middle;fontFamily=Helvetica;fontSize=12;fontColor=default;fillColor=light-dark(#ffffff, #2b2b00);rounded=0;strokeWidth=3;autosize=0;" parent="1" vertex="1">
          <mxGeometry x="572.85" y="629.64" width="151.6" height="37.79" as="geometry" />
        </mxCell>
        <mxCell id="k3Ge6N0_RAWB8F6Zxe4Y-71" style="edgeStyle=orthogonalEdgeStyle;shape=connector;rounded=0;orthogonalLoop=1;jettySize=auto;html=1;exitX=0.5;exitY=1;exitDx=0;exitDy=0;entryX=0.5;entryY=0;entryDx=0;entryDy=0;strokeColor=default;strokeWidth=3;align=center;verticalAlign=middle;fontFamily=Helvetica;fontSize=22;fontColor=default;labelBackgroundColor=default;startFill=0;endArrow=none;flowAnimation=0;" parent="1" source="BXb0ApeQCMEE1BRcDQZF-2" target="6U1i4i2XwD_uMjKU9mNT-3" edge="1">
          <mxGeometry relative="1" as="geometry" />
        </mxCell>
        <mxCell id="BXb0ApeQCMEE1BRcDQZF-2" value="&lt;font&gt;&lt;b&gt;DMO: 612_R&lt;br&gt;(2m 49 W/U)&lt;/b&gt;&lt;/font&gt;" style="shape=hexagon;perimeter=hexagonPerimeter2;whiteSpace=wrap;html=1;fixedSize=1;strokeColor=default;align=center;verticalAlign=middle;fontFamily=Helvetica;fontSize=12;fontColor=default;fillColor=light-dark(#ffffff, #2b2b00);rounded=0;strokeWidth=3;" parent="1" vertex="1">
          <mxGeometry x="807.85" y="480" width="151.6" height="37.79" as="geometry" />
        </mxCell>
        <mxCell id="k3Ge6N0_RAWB8F6Zxe4Y-56" style="edgeStyle=orthogonalEdgeStyle;shape=connector;rounded=0;orthogonalLoop=1;jettySize=auto;html=1;exitX=0.5;exitY=0;exitDx=0;exitDy=0;entryX=0.5;entryY=1;entryDx=0;entryDy=0;strokeColor=default;strokeWidth=3;align=center;verticalAlign=middle;fontFamily=Helvetica;fontSize=22;fontColor=default;labelBackgroundColor=default;startFill=0;endArrow=none;flowAnimation=0;" parent="1" source="BXb0ApeQCMEE1BRcDQZF-4" target="nskLqa04cSPr9-I_M70H-1" edge="1">
          <mxGeometry relative="1" as="geometry" />
        </mxCell>
        <mxCell id="BXb0ApeQCMEE1BRcDQZF-4" value="&lt;b&gt;&lt;font&gt;Kräfte&lt;br&gt;&lt;/font&gt;&lt;/b&gt;" style="rounded=0;whiteSpace=wrap;html=1;strokeColor=default;align=center;verticalAlign=middle;fontFamily=Helvetica;fontSize=22;fontColor=default;fillColor=light-dark(#ffffff, #2b2b00);strokeWidth=3;aspect=fixed;" parent="1" vertex="1">
          <mxGeometry x="589.1500000000001" y="710" width="119" height="60.21" as="geometry" />
        </mxCell>
        <mxCell id="yXz3as3n7Zx5iCyn30o8-8" value="&lt;font style=&quot;font-size: 20px;&quot;&gt;&lt;b&gt;Führungs-/Ferndmeldeskizzen&amp;nbsp;&lt;br&gt;SER: Personen-Sucheinsätze DRK-KV VS&lt;/b&gt;&lt;/font&gt;" style="text;html=1;align=center;verticalAlign=middle;resizable=0;points=[];autosize=1;strokeColor=none;fillColor=none;fontFamily=Helvetica;fontSize=12;fontColor=default;" parent="1" vertex="1">
          <mxGeometry x="350" y="20" width="420" height="60" as="geometry" />
        </mxCell>
        <mxCell id="yXz3as3n7Zx5iCyn30o8-14" value="&lt;span style=&quot;font-size: 20px;&quot;&gt;&lt;b&gt;Entwurf V0.2&lt;br&gt;Stand: 11.09.2025&amp;nbsp;&lt;br&gt;&lt;/b&gt;&lt;/span&gt;" style="text;html=1;align=center;verticalAlign=middle;resizable=0;points=[];autosize=1;strokeColor=none;fillColor=none;fontFamily=Helvetica;fontSize=12;fontColor=default;rounded=0;" parent="1" vertex="1">
          <mxGeometry x="770" y="700" width="200" height="60" as="geometry" />
        </mxCell>
        <mxCell id="6U1i4i2XwD_uMjKU9mNT-3" value="&lt;b&gt;&lt;font&gt;B-Raum&lt;/font&gt;&lt;/b&gt;" style="rounded=0;whiteSpace=wrap;html=1;strokeColor=default;align=center;verticalAlign=middle;fontFamily=Helvetica;fontSize=30;fontColor=default;fillColor=light-dark(#ffffff, #2b2b00);strokeWidth=3;aspect=fixed;" parent="1" vertex="1">
          <mxGeometry x="824.1500000000001" y="559.79" width="119" height="60.21" as="geometry" />
        </mxCell>
        <mxCell id="k3Ge6N0_RAWB8F6Zxe4Y-86" style="edgeStyle=orthogonalEdgeStyle;shape=connector;rounded=0;orthogonalLoop=1;jettySize=auto;html=1;exitX=0.5;exitY=0;exitDx=0;exitDy=0;entryX=0.5;entryY=1;entryDx=0;entryDy=0;strokeColor=default;strokeWidth=3;align=center;verticalAlign=middle;fontFamily=Helvetica;fontSize=22;fontColor=default;labelBackgroundColor=default;startFill=0;endArrow=none;flowAnimation=0;" parent="1" source="k3Ge6N0_RAWB8F6Zxe4Y-36" target="2Iq-k1-DHA4utV9OMn_V-1" edge="1">
          <mxGeometry relative="1" as="geometry" />
        </mxCell>
        <mxCell id="k3Ge6N0_RAWB8F6Zxe4Y-36" value="&lt;span&gt;&lt;b&gt;&lt;font&gt;Mantrailer&lt;/font&gt;&lt;/b&gt;&lt;/span&gt;" style="rounded=0;whiteSpace=wrap;html=1;strokeColor=default;align=center;verticalAlign=middle;fontFamily=Helvetica;fontSize=22;fontColor=default;fillColor=light-dark(#ffffff, #2b2b00);strokeWidth=3;aspect=fixed;" parent="1" vertex="1">
          <mxGeometry x="189.20000000000002" y="528.5" width="119" height="60.21" as="geometry" />
        </mxCell>
        <mxCell id="k3Ge6N0_RAWB8F6Zxe4Y-52" style="edgeStyle=orthogonalEdgeStyle;shape=connector;rounded=0;orthogonalLoop=1;jettySize=auto;html=1;entryX=0.5;entryY=1;entryDx=0;entryDy=0;strokeColor=default;strokeWidth=3;align=center;verticalAlign=middle;fontFamily=Helvetica;fontSize=22;fontColor=default;labelBackgroundColor=default;startFill=0;endArrow=none;flowAnimation=0;" parent="1" source="k3Ge6N0_RAWB8F6Zxe4Y-38" target="k3Ge6N0_RAWB8F6Zxe4Y-48" edge="1">
          <mxGeometry relative="1" as="geometry" />
        </mxCell>
        <mxCell id="k3Ge6N0_RAWB8F6Zxe4Y-53" style="edgeStyle=orthogonalEdgeStyle;shape=connector;rounded=0;orthogonalLoop=1;jettySize=auto;html=1;exitX=0.5;exitY=1;exitDx=0;exitDy=0;entryX=0.5;entryY=0;entryDx=0;entryDy=0;strokeColor=default;strokeWidth=3;align=center;verticalAlign=middle;fontFamily=Helvetica;fontSize=22;fontColor=default;labelBackgroundColor=default;startFill=0;endArrow=none;flowAnimation=0;" parent="1" source="k3Ge6N0_RAWB8F6Zxe4Y-38" target="9z3cz8a9huuIDM0onZsC-8" edge="1">
          <mxGeometry relative="1" as="geometry" />
        </mxCell>
        <mxCell id="k3Ge6N0_RAWB8F6Zxe4Y-38" value="&lt;font&gt;&lt;b&gt;DMO: 609_R&lt;br&gt;(2m 49 W/U)&lt;/b&gt;&lt;/font&gt;" style="shape=hexagon;perimeter=hexagonPerimeter2;whiteSpace=wrap;html=1;fixedSize=1;strokeColor=default;align=center;verticalAlign=middle;fontFamily=Helvetica;fontSize=12;fontColor=default;fillColor=light-dark(#ffffff, #2b2b00);rounded=0;strokeWidth=3;autosize=0;" parent="1" vertex="1">
          <mxGeometry x="32.30000000000004" y="629.64" width="151.6" height="37.79" as="geometry" />
        </mxCell>
        <mxCell id="k3Ge6N0_RAWB8F6Zxe4Y-48" value="&lt;b&gt;Führung RHS&lt;/b&gt;" style="rounded=0;whiteSpace=wrap;html=1;strokeColor=default;align=center;verticalAlign=middle;fontFamily=Helvetica;fontSize=22;fontColor=default;fillColor=light-dark(#ffffff, #2b2b00);strokeWidth=3;aspect=fixed;" parent="1" vertex="1">
          <mxGeometry x="48.599999999999994" y="528.14" width="119" height="60.21" as="geometry" />
        </mxCell>
        <mxCell id="k3Ge6N0_RAWB8F6Zxe4Y-61" style="edgeStyle=orthogonalEdgeStyle;shape=connector;rounded=0;orthogonalLoop=1;jettySize=auto;html=1;entryX=0.5;entryY=1;entryDx=0;entryDy=0;strokeColor=default;strokeWidth=3;align=center;verticalAlign=middle;fontFamily=Helvetica;fontSize=22;fontColor=default;labelBackgroundColor=default;startFill=0;endArrow=none;flowAnimation=0;" parent="1" source="k3Ge6N0_RAWB8F6Zxe4Y-60" target="Lcw7kQGhxqpuMeW0KqM0-8" edge="1">
          <mxGeometry relative="1" as="geometry" />
        </mxCell>
        <mxCell id="k3Ge6N0_RAWB8F6Zxe4Y-60" value="&lt;b&gt;Führung Kräfte&lt;/b&gt;" style="rounded=0;whiteSpace=wrap;html=1;strokeColor=default;align=center;verticalAlign=middle;fontFamily=Helvetica;fontSize=22;fontColor=default;fillColor=light-dark(#ffffff, #2b2b00);strokeWidth=3;aspect=fixed;" parent="1" vertex="1">
          <mxGeometry x="589.1500000000001" y="528.5" width="119" height="60.21" as="geometry" />
        </mxCell>
        <mxCell id="k3Ge6N0_RAWB8F6Zxe4Y-68" value="(Option 2)" style="edgeStyle=orthogonalEdgeStyle;shape=connector;rounded=0;orthogonalLoop=1;jettySize=auto;html=1;strokeColor=default;strokeWidth=3;align=center;verticalAlign=middle;fontFamily=Helvetica;fontSize=19;fontColor=default;labelBackgroundColor=default;startFill=0;endArrow=none;flowAnimation=0;" parent="1" source="k3Ge6N0_RAWB8F6Zxe4Y-63" target="Lcw7kQGhxqpuMeW0KqM0-8" edge="1">
          <mxGeometry x="0.0269" y="1" relative="1" as="geometry">
            <mxPoint as="offset" />
          </mxGeometry>
        </mxCell>
        <mxCell id="k3Ge6N0_RAWB8F6Zxe4Y-69" value="(Bei Bedarf)" style="edgeStyle=orthogonalEdgeStyle;shape=connector;rounded=0;orthogonalLoop=1;jettySize=auto;html=1;entryX=0.5;entryY=0;entryDx=0;entryDy=0;strokeColor=default;strokeWidth=3;align=center;verticalAlign=middle;fontFamily=Helvetica;fontSize=19;fontColor=default;labelBackgroundColor=default;startFill=0;endArrow=none;flowAnimation=0;" parent="1" source="k3Ge6N0_RAWB8F6Zxe4Y-63" target="Tnsp_8qMlVV5rjM7AwU0-1" edge="1">
          <mxGeometry x="0.7273" relative="1" as="geometry">
            <mxPoint as="offset" />
          </mxGeometry>
        </mxCell>
        <mxCell id="k3Ge6N0_RAWB8F6Zxe4Y-81" style="edgeStyle=orthogonalEdgeStyle;shape=connector;rounded=0;orthogonalLoop=1;jettySize=auto;html=1;exitX=0;exitY=0.5;exitDx=0;exitDy=0;entryX=0.5;entryY=1;entryDx=0;entryDy=0;strokeColor=default;strokeWidth=3;align=center;verticalAlign=middle;fontFamily=Helvetica;fontSize=22;fontColor=default;labelBackgroundColor=default;startFill=0;endArrow=none;flowAnimation=0;" parent="1" source="k3Ge6N0_RAWB8F6Zxe4Y-63" target="Lcw7kQGhxqpuMeW0KqM0-1" edge="1">
          <mxGeometry relative="1" as="geometry" />
        </mxCell>
        <mxCell id="k3Ge6N0_RAWB8F6Zxe4Y-63" value="&lt;font&gt;&lt;b&gt;TMO: BS VS FG&lt;br&gt;7251&lt;/b&gt;&lt;/font&gt;" style="shape=hexagon;perimeter=hexagonPerimeter2;whiteSpace=wrap;html=1;fixedSize=1;rounded=0;strokeColor=default;strokeWidth=3;align=center;verticalAlign=middle;fontFamily=Helvetica;fontSize=12;fontColor=default;fillColor=light-dark(#ffffff, #2b2b00);" parent="1" vertex="1">
          <mxGeometry x="572.8500000000001" y="290" width="151.6" height="37.79" as="geometry" />
        </mxCell>
        <mxCell id="k3Ge6N0_RAWB8F6Zxe4Y-78" style="edgeStyle=orthogonalEdgeStyle;shape=connector;rounded=0;orthogonalLoop=1;jettySize=auto;html=1;exitX=0.5;exitY=1;exitDx=0;exitDy=0;entryX=0.5;entryY=0;entryDx=0;entryDy=0;strokeColor=default;strokeWidth=3;align=center;verticalAlign=middle;fontFamily=Helvetica;fontSize=22;fontColor=default;labelBackgroundColor=default;startFill=0;endArrow=none;flowAnimation=0;" parent="1" source="k3Ge6N0_RAWB8F6Zxe4Y-75" target="k3Ge6N0_RAWB8F6Zxe4Y-76" edge="1">
          <mxGeometry relative="1" as="geometry" />
        </mxCell>
        <mxCell id="k3Ge6N0_RAWB8F6Zxe4Y-88" value="&lt;span style=&quot;font-size: 19px;&quot;&gt;(Option 1)&lt;/span&gt;" style="edgeStyle=orthogonalEdgeStyle;shape=connector;rounded=0;orthogonalLoop=1;jettySize=auto;html=1;exitX=0.5;exitY=0;exitDx=0;exitDy=0;entryX=0.5;entryY=1;entryDx=0;entryDy=0;strokeColor=default;strokeWidth=3;align=center;verticalAlign=middle;fontFamily=Helvetica;fontSize=22;fontColor=default;labelBackgroundColor=default;startFill=0;endArrow=none;flowAnimation=0;" parent="1" source="k3Ge6N0_RAWB8F6Zxe4Y-75" target="2Iq-k1-DHA4utV9OMn_V-1" edge="1">
          <mxGeometry x="-0.6475" relative="1" as="geometry">
            <mxPoint as="offset" />
          </mxGeometry>
        </mxCell>
        <mxCell id="k3Ge6N0_RAWB8F6Zxe4Y-75" value="&lt;b&gt;Führung Kräfte&lt;/b&gt;" style="rounded=0;whiteSpace=wrap;html=1;strokeColor=default;align=center;verticalAlign=middle;fontFamily=Helvetica;fontSize=22;fontColor=default;fillColor=light-dark(#ffffff, #2b2b00);strokeWidth=3;aspect=fixed;" parent="1" vertex="1">
          <mxGeometry x="342.4000000000001" y="528.5" width="119" height="60.21" as="geometry" />
        </mxCell>
        <mxCell id="k3Ge6N0_RAWB8F6Zxe4Y-79" style="edgeStyle=orthogonalEdgeStyle;shape=connector;rounded=0;orthogonalLoop=1;jettySize=auto;html=1;exitX=0.5;exitY=1;exitDx=0;exitDy=0;entryX=0.5;entryY=0;entryDx=0;entryDy=0;strokeColor=default;strokeWidth=3;align=center;verticalAlign=middle;fontFamily=Helvetica;fontSize=22;fontColor=default;labelBackgroundColor=default;startFill=0;endArrow=none;flowAnimation=0;" parent="1" source="k3Ge6N0_RAWB8F6Zxe4Y-76" target="k3Ge6N0_RAWB8F6Zxe4Y-77" edge="1">
          <mxGeometry relative="1" as="geometry" />
        </mxCell>
        <mxCell id="k3Ge6N0_RAWB8F6Zxe4Y-76" value="&lt;font&gt;&lt;b&gt;DMO: 611_R&lt;br&gt;(2m 51 W/U)&lt;/b&gt;&lt;/font&gt;" style="shape=hexagon;perimeter=hexagonPerimeter2;whiteSpace=wrap;html=1;fixedSize=1;strokeColor=default;align=center;verticalAlign=middle;fontFamily=Helvetica;fontSize=12;fontColor=default;fillColor=light-dark(#ffffff, #2b2b00);rounded=0;strokeWidth=3;autosize=0;" parent="1" vertex="1">
          <mxGeometry x="326.1" y="629.64" width="151.6" height="37.79" as="geometry" />
        </mxCell>
        <mxCell id="k3Ge6N0_RAWB8F6Zxe4Y-77" value="&lt;b&gt;&lt;font&gt;Kräfte&lt;br&gt;&lt;/font&gt;&lt;/b&gt;" style="rounded=0;whiteSpace=wrap;html=1;strokeColor=default;align=center;verticalAlign=middle;fontFamily=Helvetica;fontSize=22;fontColor=default;fillColor=light-dark(#ffffff, #2b2b00);strokeWidth=3;aspect=fixed;" parent="1" vertex="1">
          <mxGeometry x="342.4000000000001" y="710" width="119" height="60.21" as="geometry" />
        </mxCell>
      </root>
    </mxGraphModel>
  </diagram>
  <diagram id="7V2Dhxv9nrdkHiI6oel2" name="Seite-2">
    <mxGraphModel grid="1" page="1" gridSize="10" guides="1" tooltips="1" connect="1" arrows="1" fold="1" pageScale="1" pageWidth="827" pageHeight="1169" math="0" shadow="0">
      <root>
        <mxCell id="0" />
        <mxCell id="1" parent="0" />
      </root>
    </mxGraphModel>
  </diagram>
</mxfile>
